<svg width="28" height="28" viewBox="0 0 28 28" fill="none" xmlns="http://www.w3.org/2000/svg">
<path d="M24.6959 7.09284L17.0236 1.71951C14.9324 0.252843 11.7223 0.332844 9.71093 1.89284L3.0376 7.10618C1.7056 8.14618 0.65332 10.2795 0.65332 11.9595V21.1595C0.65332 24.5595 3.41056 27.3328 6.80717 27.3328H21.1661C24.5627 27.3328 27.32 24.5728 27.32 21.1728V12.1328C27.32 10.3328 26.1611 8.11951 24.6959 7.09284ZM14.9857 21.9995C14.9857 22.5462 14.5328 22.9995 13.9867 22.9995C13.4405 22.9995 12.9877 22.5462 12.9877 21.9995V17.9995C12.9877 17.4528 13.4405 16.9995 13.9867 16.9995C14.5328 16.9995 14.9857 17.4528 14.9857 17.9995V21.9995Z" fill="#4CA4F0"/>
</svg>
